# xmcd
#
# Track frame offsets:
#	150
#	15030
#	32667
#	47550
#	63987
#	79670
#	97802
#	112797
#	129437
#	145042
#	162637
#	176630
#	188707
#	205865
#	219980
#	234320
#	250657
#	264592
#	275512
#
# Disc length: 3705
#
# Revision: 1
# Processed by: cddbd v1.5.1PL0 Copyright (c) Steve Scherf et al.
# Submitted via: VisiTrax 2.9.5.180 - For more info visit www.synapsa.com
# Normalized: r0:DSETVAR1
#
DISCID=f00e7713
DTITLE=Various Artist - CDX 88 July 1994
DYEAR=1994
DGENRE=
TTITLE0=Maverick Choir - Amazing grace
TTITLE1=Tractors - Baby likes to rock it
TTITLE2=Ian Tyson - Eighteen inches of rain
TTITLE3=Larry Stewart - Heart like a hurrycane
TTITLE4=Lorrie Morgan - Heart over mind
TTITLE5=Don Cox - In my fathers eyes
TTITLE6=Restless Heart - In this little town
TTITLE7=Blackhawk - I sure can smell the rain
TTITLE8=Collin Raye - Man of my world
TTITLE9=Lari White - Now I know
TTITLE10=Willie Nelson - Curtis Potter - Once you're past the blues
TTITLE11=Kenny Chesney - Somebody's callin'
TTITLE12=Suzy Bogguss - Souvenirs
TTITLE13=George Ducas - Teardrops
TTITLE14=Victoria Shaw - Tears dry
TTITLE15=Neil McCoy - The city put the country back in me
TTITLE16=Tracy Byrd - Watermelon crawl
TTITLE17=Davis daniel - William and Mary
TTITLE18=John Anderson - Boating safety
EXTD=
EXTT0=
EXTT1=
EXTT2=
EXTT3=
EXTT4=
EXTT5=
EXTT6=
EXTT7=
EXTT8=
EXTT9=
EXTT10=
EXTT11=
EXTT12=
EXTT13=
EXTT14=
EXTT15=
EXTT16=
EXTT17=
EXTT18=
PLAYORDER=
